<?xml version="1.0" encoding="utf-8"?>
<svg version="1.1" xmlns:xlink="http://www.w3.org/1999/xlink" width="377px" height="121px" xmlns="http://www.w3.org/2000/svg">
  <g>
    <path d="M 0 0  L 377 0  L 377 121  L 0 121  L 0 0  " fill-rule="nonzero" fill="#cccccc" stroke="none" />
    <path d="M 8 8  L 369 8  L 369 113  L 8 113  L 8 8  " fill-rule="nonzero" fill="#ffffff" stroke="none" />
    <path d="M 205.115 36.3  C 200.033 36.3  196.04 32.307  196.04 27.225  C 196.04 22.143  200.033 18.15  205.115 18.15  C 210.197 18.15  214.19 22.143  214.19 27.225  C 214.19 32.307  210.197 36.3  205.115 36.3  " fill-rule="nonzero" fill="#cccccc" stroke="none" />
    <path d="M 11 110  L 11 55.55  L 99.75 30.8  L 224 90.9352785145889  L 295 45.65  L 366 90.9352785145889  L 366 110  L 11 110  " fill-rule="nonzero" fill="#169bd5" stroke="none" />
  </g>
</svg>