<?xml version="1.0" encoding="utf-8"?>
<svg version="1.1" xmlns:xlink="http://www.w3.org/1999/xlink" width="40px" height="50px" xmlns="http://www.w3.org/2000/svg">
  <defs>
    <filter x="420px" y="27px" width="40px" height="50px" filterUnits="userSpaceOnUse" id="filter2">
      <feOffset dx="1" dy="1" in="SourceAlpha" result="shadowOffsetInner" />
      <feGaussianBlur stdDeviation="2.5" in="shadowOffsetInner" result="shadowGaussian" />
      <feComposite in2="shadowGaussian" operator="atop" in="SourceAlpha" result="shadowComposite" />
      <feColorMatrix type="matrix" values="0 0 0 0 0  0 0 0 0 0  0 0 0 0 0  0 0 0 0.698039215686274 0  " in="shadowComposite" />
    </filter>
    <g id="widget3">
      <path d="M 439 70.0369284683536  C 433.2 60.4073405959099  424.5 54.6295878724437  424.5 45  C 424.5 39.9857142857143  427.4 31.5  439 31.5  C 450.6 31.5  453.5 39.9857142857143  453.5 45  C 453.5 54.6295878724437  444.8 60.4073405959099  439 70.0369284683536  Z " fill-rule="nonzero" fill="#009dd9" stroke="none" />
      <path d="M 439 71  C 433 61  424 55  424 45  C 424 39.8  427 31  439 31  C 451 31  454 39.8  454 45  C 454 55  445 61  439 71  Z M 439 69.0738569367072  C 444.6 59.8146811918198  453 54.2591757448874  453 45  C 453 40.1714285714286  450.2 32  439 32  C 427.8 32  425 40.1714285714286  425 45  C 425 54.2591757448874  433.4 59.8146811918198  439 69.0738569367072  Z " fill-rule="nonzero" fill="#ffffff" stroke="none" />
    </g>
  </defs>
  <g transform="matrix(1 0 0 1 -420 -27 )">
    <use xlink:href="#widget3" filter="url(#filter2)" />
    <use xlink:href="#widget3" />
  </g>
</svg>